<svg width="148" height="74" viewBox="0 0 148 74" fill="none" xmlns="http://www.w3.org/2000/svg">
<path d="M57.1886 24.3162H60.599C62.6913 24.3162 64.2674 24.8765 64.2674 26.772C64.2827 27.2146 64.1684 27.652 63.9381 28.0314C63.7079 28.4108 63.3717 28.7159 62.9702 28.9096V28.9719C63.4976 29.0833 63.9675 29.3781 64.2949 29.8031C64.6224 30.2281 64.7858 30.7553 64.7556 31.2893C64.7556 33.3093 63.0469 34.2017 60.8919 34.2017H57.1886V24.3162ZM60.4944 28.2732C61.5893 28.2732 62.0636 27.8166 62.0636 27.104C62.0636 26.3915 61.5614 26.0456 60.5083 26.0456H59.4413V28.2732H60.4944ZM60.7036 32.4723C61.9311 32.4723 62.5518 32.0503 62.5518 31.1371C62.5518 30.224 61.945 29.9265 60.7036 29.9265H59.4413V32.4723H60.7036Z" fill="#6A6E81"/>
<path d="M68.2846 24.3162H70.9906L74.1081 34.2017H71.7229L71.137 31.822H68.0754L67.4616 34.1741H65.1671L68.2846 24.3162ZM68.5287 30.1064H70.621L70.4396 29.2001C70.1607 28.2109 69.8887 27.0487 69.6306 26.0179H69.5678C69.3238 27.0625 69.0657 28.2109 68.7867 29.2001L68.5287 30.1064Z" fill="#6A6E81"/>
<path d="M75.196 24.3162H77.4975L80.0989 29.2278L81.0753 31.4139H81.1381C81.0474 30.3623 80.8591 28.9719 80.8591 27.8027V24.3438H82.9932V34.2017H80.6917L78.1113 29.2762L77.1349 27.1248H77.0721C77.1628 28.2109 77.3441 29.5322 77.3441 30.7013V34.2017H75.21L75.196 24.3162Z" fill="#6A6E81"/>
<path d="M85.3575 24.3162H87.6032V28.3631H87.659L90.6231 24.3162H93.0989L90.093 28.2593L93.6499 34.2017H91.195L88.761 30.051L87.6032 31.566V34.2225H85.3575V24.3162Z" fill="#6A6E81"/>
<path d="M59.1344 41.8597H56.4005V39.985H64.1628V41.8597H61.3731V49.8636H59.1344V41.8597Z" fill="#6A6E81"/>
<path d="M65.6902 39.985H69.2819C71.3742 39.985 73.1177 40.7114 73.1177 43.0565C73.1575 43.6561 73.0075 44.2531 72.6887 44.7641C72.3698 45.275 71.8981 45.6745 71.3393 45.9066L73.6059 49.8636H71.0813L69.1703 46.301H67.9359V49.8636H65.6902V39.985ZM69.0936 44.53C70.2722 44.53 70.9139 44.025 70.9139 43.0565C70.9139 42.088 70.2722 41.7559 69.0936 41.7559H67.9359V44.5231L69.0936 44.53Z" fill="#6A6E81"/>
<path d="M76.7792 39.985H79.5062L82.6236 49.8636H80.2036L79.5968 47.5116H76.5561L75.9423 49.8636H73.6548L76.7792 39.985ZM77.0303 45.7683H79.1226L78.8924 44.8621C78.6204 43.8797 78.3415 42.7106 78.0834 41.6799H78.0206C77.7766 42.7244 77.5185 43.8797 77.2465 44.8621L77.0303 45.7683Z" fill="#6A6E81"/>
<path d="M83.6907 39.985H85.9991L88.5726 44.8897L89.549 47.0758H89.6118C89.5211 46.0312 89.3398 44.6338 89.3398 43.4647V40.0057H91.4739V49.8636H89.1724L86.592 44.9658L85.6156 42.8144H85.5528C85.6435 43.9074 85.8318 45.2218 85.8318 46.3909V49.8913H83.6907V39.985Z" fill="#6A6E81"/>
<path d="M93.2104 48.6184L94.4937 47.0896C95.1681 47.6989 96.0314 48.0624 96.9417 48.1204C97.8692 48.1204 98.3365 47.7537 98.3365 47.1657C98.3365 46.5777 97.7786 46.3494 96.9417 45.9828L95.6445 45.4362C95.0687 45.25 94.5661 44.8897 94.2071 44.4059C93.8482 43.9221 93.6509 43.339 93.6429 42.7383C93.6429 41.1057 95.1074 39.7982 97.1858 39.7982C98.3864 39.801 99.5381 40.2704 100.394 41.1057L99.2501 42.4893C98.6692 41.9884 97.9275 41.7089 97.1579 41.7006C96.3767 41.7006 95.8886 42.0396 95.8886 42.5999C95.8886 43.1603 96.586 43.4162 97.402 43.7621L98.6852 44.281C99.2664 44.45 99.7751 44.8049 100.132 45.2903C100.489 45.7757 100.674 46.3645 100.659 46.9651C100.659 48.5977 99.2641 50.0228 96.8998 50.0228C95.5362 50.0293 94.2197 49.5281 93.2104 48.6184Z" fill="#6A6E81"/>
<path d="M102.347 39.985H108.623V41.8597H104.613V44.1495H108.066V46.0312H104.613V49.8636H102.368L102.347 39.985Z" fill="#6A6E81"/>
<path d="M110.353 39.985H116.588V41.8597H112.599V43.8451H115.995V45.7129H112.599V47.982H116.742V49.8636H110.353V39.985Z" fill="#6A6E81"/>
<path d="M118.729 39.985H122.321C124.413 39.985 126.157 40.7114 126.157 43.0565C126.196 43.6552 126.047 44.2511 125.729 44.7618C125.412 45.2724 124.942 45.6725 124.385 45.9066L126.645 49.8636H124.141L122.237 46.301H120.996V49.8636H118.75L118.729 39.985ZM122.133 44.53C123.311 44.53 123.953 44.025 123.953 43.0565C123.953 42.088 123.311 41.7559 122.133 41.7559H120.975V44.5231L122.133 44.53Z" fill="#6A6E81"/>
<path d="M127.238 48.6184L128.521 47.0896C129.2 47.7004 130.068 48.0639 130.983 48.1204C131.917 48.1204 132.378 47.7537 132.378 47.1657C132.378 46.5777 131.813 46.3494 130.941 45.9828L129.637 45.4362C129.062 45.2491 128.56 44.8886 128.201 44.405C127.842 43.9213 127.644 43.3387 127.635 42.7383C127.635 41.1057 129.107 39.7982 131.185 39.7982C132.385 39.8032 133.536 40.2722 134.393 41.1057L133.243 42.4893C132.663 41.9868 131.92 41.7071 131.15 41.7006C130.369 41.7006 129.881 42.0396 129.881 42.5999C129.881 43.1603 130.537 43.4162 131.394 43.7621L132.678 44.281C133.258 44.4503 133.766 44.8054 134.122 45.2909C134.478 45.7764 134.661 46.3651 134.644 46.9651C134.644 48.5977 133.25 50.0228 130.885 50.0228C129.536 50.0176 128.237 49.5174 127.238 48.6184Z" fill="#6A6E81"/>
<path d="M19.1582 40.4139L13.3208 33.0326L16.5429 33.5514C17.0679 30.9167 18.4751 28.5353 20.5361 26.7936C22.5971 25.0518 25.1911 24.0521 27.8969 23.9564C25.969 24.7346 24.278 25.9962 22.9894 27.6175C21.7008 29.2389 20.8589 31.1644 20.5461 33.2056L23.559 32.1471L19.1582 40.4139Z" fill="#6A6E81"/>
<path d="M43.8888 33.3785L49.7193 40.7599L46.4972 40.2341C45.9697 42.8633 44.5631 45.239 42.5051 46.9766C40.447 48.7142 37.858 49.712 35.1571 49.8084C37.074 49.0313 38.7564 47.7769 40.0417 46.1663C41.3269 44.5558 42.1716 42.6436 42.494 40.6146L39.4881 41.6799L43.8888 33.3785Z" fill="#6A6E81"/>
<path d="M33.2531 34.7898C31.1609 34.0081 30.4634 33.5377 30.4634 32.9289C30.4634 32.2371 31.119 31.829 32.3186 31.8221C33.6163 31.8523 34.8909 32.169 36.0498 32.749L36.8937 29.4838C35.746 28.9771 34.5195 28.6683 33.2671 28.5707V26.4054H30.3309V28.7782C27.7574 29.3524 26.1464 31.0888 26.1464 33.344C26.1464 36.1665 28.6083 37.3494 30.7564 38.0619C32.7789 38.7537 33.1973 39.3071 33.1973 39.9505C33.1973 40.7322 32.4093 41.2026 31.1051 41.2026C29.6033 41.1756 28.1346 40.7607 26.8438 39.9989L25.972 43.3748C27.2857 44.0526 28.7276 44.4508 30.2054 44.5439V46.8822H33.1485V44.3433C35.8196 43.8037 37.5353 41.9636 37.5353 39.6046C37.5353 37.2456 36.266 35.8413 33.2531 34.7898Z" fill="#6A6E81"/>
</svg>
