<svg width="113" height="39" viewBox="0 0 113 39" fill="none" xmlns="http://www.w3.org/2000/svg">
<path d="M45.886 17.168C45.3073 17.168 44.7613 17.07 44.248 16.874C43.7347 16.6687 43.282 16.37 42.89 15.978C42.5073 15.586 42.204 15.1007 41.98 14.522C41.756 13.934 41.644 13.2573 41.644 12.492C41.644 11.736 41.7607 11.064 41.994 10.476C42.2273 9.87867 42.54 9.37467 42.932 8.964C43.324 8.55333 43.7813 8.24067 44.304 8.026C44.8267 7.81133 45.3773 7.704 45.956 7.704C46.544 7.704 47.0713 7.82533 47.538 8.068C48.0047 8.30133 48.392 8.57667 48.7 8.894L47.608 10.21C47.3747 9.99533 47.1273 9.82267 46.866 9.692C46.614 9.552 46.3247 9.482 45.998 9.482C45.69 9.482 45.396 9.552 45.116 9.692C44.8453 9.82267 44.6073 10.014 44.402 10.266C44.206 10.518 44.0473 10.826 43.926 11.19C43.814 11.554 43.758 11.9647 43.758 12.422C43.758 13.3647 43.9587 14.0973 44.36 14.62C44.7613 15.1333 45.298 15.39 45.97 15.39C46.3433 15.39 46.6747 15.3107 46.964 15.152C47.2627 14.984 47.524 14.7787 47.748 14.536L48.84 15.824C48.0747 16.72 47.09 17.168 45.886 17.168ZM50.2264 17V7.872H53.5164C54.0018 7.872 54.4544 7.91867 54.8744 8.012C55.3038 8.10533 55.6771 8.264 55.9944 8.488C56.3118 8.70267 56.5638 8.992 56.7504 9.356C56.9371 9.72 57.0304 10.1727 57.0304 10.714C57.0304 11.386 56.8811 11.9413 56.5824 12.38C56.2931 12.8093 55.9011 13.1313 55.4064 13.346L57.4784 17H55.1684L53.4184 13.71H52.2844V17H50.2264ZM52.2844 12.072H53.3484C53.8898 12.072 54.3004 11.96 54.5804 11.736C54.8698 11.5027 55.0144 11.162 55.0144 10.714C55.0144 10.266 54.8698 9.95333 54.5804 9.776C54.3004 9.59867 53.8898 9.51 53.3484 9.51H52.2844V12.072ZM58.8124 17V7.872H64.5244V9.608H60.8704V11.442H63.9784V13.164H60.8704V15.264H64.6644V17H58.8124ZM66.4823 17V7.872H69.0583C69.7583 7.872 70.3883 7.96067 70.9483 8.138C71.5083 8.31533 71.989 8.59067 72.3903 8.964C72.7916 9.328 73.0996 9.79467 73.3143 10.364C73.529 10.9333 73.6363 11.61 73.6363 12.394C73.6363 13.178 73.529 13.8593 73.3143 14.438C73.0996 15.0167 72.7963 15.4973 72.4043 15.88C72.0123 16.2533 71.541 16.5333 70.9903 16.72C70.449 16.9067 69.8423 17 69.1703 17H66.4823ZM68.5403 15.334H68.9323C69.3243 15.334 69.679 15.2827 69.9963 15.18C70.3136 15.0773 70.5843 14.914 70.8083 14.69C71.0323 14.4567 71.205 14.1533 71.3263 13.78C71.457 13.4067 71.5223 12.9447 71.5223 12.394C71.5223 11.8527 71.457 11.4 71.3263 11.036C71.205 10.6627 71.0323 10.3687 70.8083 10.154C70.5843 9.93 70.3136 9.77133 69.9963 9.678C69.679 9.58467 69.3243 9.538 68.9323 9.538H68.5403V15.334ZM75.369 17V7.872H77.427V17H75.369ZM81.358 17V9.608H78.852V7.872H85.936V9.608H83.43V17H81.358ZM45.886 34.168C45.3073 34.168 44.7613 34.07 44.248 33.874C43.7347 33.6687 43.282 33.37 42.89 32.978C42.5073 32.586 42.204 32.1007 41.98 31.522C41.756 30.934 41.644 30.2573 41.644 29.492C41.644 28.736 41.7607 28.064 41.994 27.476C42.2273 26.8787 42.54 26.3747 42.932 25.964C43.324 25.5533 43.7813 25.2407 44.304 25.026C44.8267 24.8113 45.3773 24.704 45.956 24.704C46.544 24.704 47.0713 24.8253 47.538 25.068C48.0047 25.3013 48.392 25.5767 48.7 25.894L47.608 27.21C47.3747 26.9953 47.1273 26.8227 46.866 26.692C46.614 26.552 46.3247 26.482 45.998 26.482C45.69 26.482 45.396 26.552 45.116 26.692C44.8453 26.8227 44.6073 27.014 44.402 27.266C44.206 27.518 44.0473 27.826 43.926 28.19C43.814 28.554 43.758 28.9647 43.758 29.422C43.758 30.3647 43.9587 31.0973 44.36 31.62C44.7613 32.1333 45.298 32.39 45.97 32.39C46.3433 32.39 46.6747 32.3107 46.964 32.152C47.2627 31.984 47.524 31.7787 47.748 31.536L48.84 32.824C48.0747 33.72 47.09 34.168 45.886 34.168ZM52.3684 29.38L52.1444 30.22H54.0904L53.8804 29.38C53.7498 28.9227 53.6238 28.4373 53.5024 27.924C53.3811 27.4107 53.2598 26.916 53.1384 26.44H53.0824C52.9704 26.9253 52.8538 27.4247 52.7324 27.938C52.6204 28.442 52.4991 28.9227 52.3684 29.38ZM49.0644 34L51.9204 24.872H54.3984L57.2544 34H55.0704L54.5104 31.83H51.7244L51.1644 34H49.0644ZM58.2518 34V24.872H61.5418C62.0272 24.872 62.4798 24.9187 62.8998 25.012C63.3292 25.1053 63.7025 25.264 64.0198 25.488C64.3372 25.7027 64.5892 25.992 64.7758 26.356C64.9625 26.72 65.0558 27.1727 65.0558 27.714C65.0558 28.386 64.9065 28.9413 64.6078 29.38C64.3185 29.8093 63.9265 30.1313 63.4318 30.346L65.5038 34H63.1938L61.4438 30.71H60.3098V34H58.2518ZM60.3098 29.072H61.3738C61.9152 29.072 62.3258 28.96 62.6058 28.736C62.8952 28.5027 63.0398 28.162 63.0398 27.714C63.0398 27.266 62.8952 26.9533 62.6058 26.776C62.3258 26.5987 61.9152 26.51 61.3738 26.51H60.3098V29.072ZM66.8378 34V24.872H69.4138C70.1138 24.872 70.7438 24.9607 71.3038 25.138C71.8638 25.3153 72.3444 25.5907 72.7458 25.964C73.1471 26.328 73.4551 26.7947 73.6698 27.364C73.8844 27.9333 73.9918 28.61 73.9918 29.394C73.9918 30.178 73.8844 30.8593 73.6698 31.438C73.4551 32.0167 73.1518 32.4973 72.7598 32.88C72.3678 33.2533 71.8964 33.5333 71.3458 33.72C70.8044 33.9067 70.1978 34 69.5258 34H66.8378ZM68.8958 32.334H69.2878C69.6798 32.334 70.0344 32.2827 70.3518 32.18C70.6691 32.0773 70.9398 31.914 71.1638 31.69C71.3878 31.4567 71.5604 31.1533 71.6818 30.78C71.8124 30.4067 71.8778 29.9447 71.8778 29.394C71.8778 28.8527 71.8124 28.4 71.6818 28.036C71.5604 27.6627 71.3878 27.3687 71.1638 27.154C70.9398 26.93 70.6691 26.7713 70.3518 26.678C70.0344 26.5847 69.6798 26.538 69.2878 26.538H68.8958V32.334Z" fill="#6A6D81"/>
<path d="M32.8759 11.0342C33.8926 11.0342 34.7169 11.8501 34.7169 12.8565V29.1522C34.7169 30.1586 33.8926 30.9745 32.8759 30.9745H3.88757C2.87082 30.9745 2.04652 30.1586 2.04652 29.1522V12.8565C2.04652 11.8501 2.87082 11.0342 3.88757 11.0342H32.8759V11.0342ZM32.8759 10.0215H3.88757C2.30863 10.0215 1.02344 11.2936 1.02344 12.8565V29.1522C1.02344 30.7151 2.30863 31.9872 3.88757 31.9872H32.8759C34.4548 31.9872 35.74 30.7151 35.74 29.1522V12.8565C35.74 11.2936 34.4548 10.0215 32.8759 10.0215V10.0215Z" fill="white"/>
<path d="M3.8874 32.4936C2.02609 32.4936 0.511719 30.9946 0.511719 29.1522V12.8565C0.511719 11.0141 2.02609 9.51514 3.8874 9.51514H32.8757C34.737 9.51514 36.2513 11.0141 36.2513 12.8565V29.1522C36.2513 30.9946 34.737 32.4936 32.8757 32.4936H3.8874ZM3.8874 12.5532C3.71773 12.5532 3.58098 12.6898 3.58098 12.8565V29.1522C3.58098 29.3202 3.71899 29.4555 3.8874 29.4555H32.8757C33.0453 29.4555 33.1821 29.3189 33.1821 29.1522V12.8565C33.1821 12.6886 33.0441 12.5532 32.8757 12.5532H3.8874Z" fill="#6A6E81"/>
<path d="M34.7163 15.7354H2.0459V20.3852H34.7163V15.7354Z" fill="#6A6E81"/>
<rect x="23.8887" y="23.5715" width="5.97222" height="3.53571" fill="#6A6E81"/>
</svg>
