<svg width="150" height="74" viewBox="0 0 150 74" fill="none" xmlns="http://www.w3.org/2000/svg">
<path d="M58.2585 23.9426H60.5581V32.1264H64.5981V34.0427H58.2585V23.9426Z" fill="#6A6E81"/>
<path d="M65.3181 28.9511C65.3181 25.6513 67.1913 23.7627 69.9522 23.7627C72.7131 23.7627 74.5794 25.6651 74.5794 28.9511C74.5794 32.237 72.7062 34.2294 69.9522 34.2294C67.1983 34.2294 65.3181 32.2509 65.3181 28.9511ZM72.2169 28.9511C72.2169 26.938 71.3432 25.7274 69.9522 25.7274C68.5613 25.7274 67.6806 26.938 67.6806 28.9511C67.6806 30.9642 68.5543 32.2647 69.9522 32.2647C71.3502 32.2647 72.2169 30.978 72.2169 28.9511Z" fill="#6A6E81"/>
<path d="M76.0192 29.0548C76.0192 25.7135 78.2628 23.7627 80.842 23.7627C81.4162 23.7682 81.9834 23.8873 82.5104 24.1131C83.0374 24.3388 83.5134 24.6666 83.9105 25.0771L82.6873 26.5298C82.2185 26.0388 81.5731 25.7504 80.8909 25.7274C79.493 25.7274 78.3887 26.9518 78.3887 28.9787C78.3887 31.0057 79.3532 32.2647 80.856 32.2647C81.2363 32.2523 81.6099 32.1616 81.9529 31.9985C82.2958 31.8353 82.6007 31.6032 82.848 31.317L84.0642 32.742C83.6618 33.2184 83.1564 33.5993 82.5855 33.8567C82.0145 34.1142 81.3924 34.2415 80.7651 34.2294C78.186 34.2294 76.0192 32.4515 76.0192 29.0548Z" fill="#6A6E81"/>
<path d="M87.5102 23.9426H90.306L93.4933 34.0427H91.0539L90.4249 31.6422H87.3145L86.6854 34.0427H84.3369L87.5102 23.9426ZM87.7618 29.8643H89.9356L89.7049 28.9304C89.4184 27.9273 89.1388 26.7305 88.8732 25.679H88.8103C88.5586 26.7513 88.293 27.9273 88.0134 28.9304L87.7618 29.8643Z" fill="#6A6E81"/>
<path d="M94.5836 23.9426H96.8902V32.1264H100.923V34.0427H94.5836V23.9426Z" fill="#6A6E81"/>
<path d="M60.2436 41.8736H57.4478V39.9574H65.36V41.8736H62.5642V50.0505H60.2436V41.8736Z" fill="#6A6E81"/>
<path d="M66.9607 39.9574H70.6372C72.797 39.9574 74.5654 40.6976 74.5654 43.0981C74.6066 43.7104 74.4536 44.3201 74.1278 44.8422C73.802 45.3643 73.3197 45.7727 72.7481 46.0105L75.0687 50.0505H72.4825L70.5324 46.4117H69.2603V50.0505H66.9607V39.9574ZM70.4555 44.5993C71.6647 44.5993 72.3217 44.0873 72.3217 43.0981C72.3217 42.1088 71.6647 41.763 70.4555 41.763H69.2673V44.5993H70.4555Z" fill="#6A6E81"/>
<path d="M78.3257 39.9574H81.1216L84.3158 50.0505H81.8695L81.2474 47.65H78.13L77.5079 50.0505H75.1594L78.3257 39.9574ZM78.5773 45.8721H80.7511L80.5135 44.9659C80.2339 43.9559 79.9543 42.766 79.6887 41.7076H79.6258C79.3742 42.7799 79.1086 43.9559 78.822 44.9659L78.5773 45.8721Z" fill="#6A6E81"/>
<path d="M85.3993 39.9574H87.7618L90.4248 44.9659L91.4243 47.1934H91.4872C91.3894 46.1281 91.2077 44.703 91.2077 43.5132V39.9574H93.3954V50.0505H91.0329L88.3699 45.0212L87.3704 42.8214H87.3075C87.3983 43.9351 87.587 45.2841 87.587 46.474V50.0505H85.3993V39.9574Z" fill="#6A6E81"/>
<path d="M95.1498 48.7845L96.4568 47.2211C97.1554 47.8411 98.0438 48.2113 98.9801 48.2726C99.9307 48.2726 100.378 47.899 100.378 47.2972C100.378 46.6953 99.8049 46.4601 98.9102 46.0866L97.5822 45.5331C96.991 45.3414 96.4751 44.9716 96.1067 44.4755C95.7382 43.9794 95.5356 43.3817 95.5272 42.766C95.5272 41.0919 97.03 39.7637 99.1618 39.7637C100.39 39.7672 101.568 40.2435 102.447 41.0919L101.273 42.5377C100.691 42.0335 99.9489 41.7471 99.1758 41.7283C98.379 41.7283 97.8757 42.0673 97.8757 42.6415C97.8757 43.2157 98.5747 43.4785 99.4274 43.8383L100.741 44.364C101.341 44.5366 101.865 44.9028 102.23 45.4043C102.595 45.9058 102.779 46.5137 102.754 47.1312C102.754 48.8053 101.357 50.258 98.9102 50.258C97.5149 50.2484 96.1736 49.7228 95.1498 48.7845Z" fill="#6A6E81"/>
<path d="M104.509 39.9574H110.946V41.8736H106.808V44.2119H110.345V46.135H106.808V50.0505H104.509V39.9574Z" fill="#6A6E81"/>
<path d="M112.715 39.9574H119.096V41.8736H115.014V43.9075H118.509V45.8099H115.014V48.1343H119.257V50.0505H112.715V39.9574Z" fill="#6A6E81"/>
<path d="M121.291 39.9574H124.968C127.127 39.9574 128.896 40.6976 128.896 43.0981C128.937 43.7104 128.784 44.3201 128.458 44.8422C128.132 45.3643 127.65 45.7727 127.078 46.0105L129.399 50.0505H126.813L124.856 46.4117H123.591V50.0505H121.291V39.9574ZM124.786 44.5993C125.995 44.5993 126.652 44.0873 126.652 43.0981C126.652 42.1088 125.995 41.763 124.786 41.763H123.598V44.5993H124.786Z" fill="#6A6E81"/>
<path d="M130.007 48.7845L131.321 47.2211C132.02 47.8411 132.908 48.2113 133.844 48.2726C134.795 48.2726 135.242 47.899 135.242 47.2972C135.242 46.6953 134.662 46.4601 133.768 46.0866L132.439 45.5331C131.848 45.3414 131.332 44.9716 130.964 44.4755C130.596 43.9794 130.393 43.3817 130.385 42.766C130.385 41.0919 131.887 39.7637 134.019 39.7637C135.247 39.7672 136.425 40.2435 137.304 41.0919L136.158 42.5446C135.576 42.0404 134.834 41.754 134.061 41.7353C133.264 41.7353 132.761 42.0742 132.761 42.6484C132.761 43.2226 133.46 43.4855 134.313 43.8452L135.627 44.3709C136.228 44.5422 136.753 44.9079 137.119 45.4095C137.485 45.9111 137.671 46.5197 137.647 47.1381C137.647 48.8122 136.249 50.2649 133.795 50.2649C132.39 50.2604 131.037 49.7318 130.007 48.7845Z" fill="#6A6E81"/>
<path d="M44.9993 40.1926L46.502 47.8922L44.3003 46.2803C42.894 48.0379 40.9294 49.2742 38.7246 49.789C36.5199 50.3038 34.2041 50.0668 32.1523 49.1166C33.8845 49.2656 35.6262 48.968 37.2076 48.2527C38.789 47.5374 40.1562 46.4289 41.176 45.0351L38.5199 44.6892L44.9993 40.1926Z" fill="#6A6E81"/>
<path d="M12.2668 45.6024C12.2011 45.6024 12.1359 45.5894 12.0753 45.5643C12.0146 45.5392 11.9596 45.5024 11.9134 45.4561C11.8672 45.4097 11.8308 45.3548 11.8063 45.2944C11.7818 45.234 11.7696 45.1694 11.7706 45.1043C11.7705 44.9734 11.8226 44.8477 11.9155 44.7545C12.0083 44.6613 12.1346 44.608 12.2668 44.6062H34.6336C34.7659 44.608 34.8921 44.6613 34.985 44.7545C35.0778 44.8477 35.1299 44.9734 35.1299 45.1043C35.1308 45.1694 35.1187 45.234 35.0941 45.2944C35.0696 45.3548 35.0332 45.4097 34.987 45.4561C34.9409 45.5024 34.8858 45.5392 34.8252 45.5643C34.7645 45.5894 34.6994 45.6024 34.6336 45.6024H12.2668Z" fill="#6A6E81"/>
<path d="M12.2668 43.3125C12.2011 43.3125 12.1359 43.2996 12.0753 43.2745C12.0146 43.2493 11.9596 43.2125 11.9134 43.1662C11.8672 43.1199 11.8308 43.0649 11.8063 43.0045C11.7818 42.9441 11.7696 42.8795 11.7706 42.8144C11.7706 42.6841 11.8228 42.5592 11.9159 42.4671C12.009 42.375 12.1352 42.3232 12.2668 42.3232H34.6336C34.6988 42.3232 34.7633 42.3359 34.8235 42.3606C34.8837 42.3853 34.9385 42.4215 34.9845 42.4671C35.0306 42.5127 35.0672 42.5669 35.0921 42.6264C35.1171 42.686 35.1299 42.7499 35.1299 42.8144C35.1308 42.8795 35.1187 42.9441 35.0941 43.0045C35.0696 43.0649 35.0332 43.1199 34.987 43.1662C34.9409 43.2125 34.8858 43.2493 34.8252 43.2745C34.7645 43.2996 34.6994 43.3125 34.6336 43.3125H12.2668Z" fill="#6A6E81"/>
<path d="M34.2072 30.1272L23.7228 25.7136C23.6356 25.6765 23.5416 25.6573 23.4467 25.6573C23.3518 25.6573 23.2578 25.6765 23.1706 25.7136L12.6862 30.1272C12.5377 30.1894 12.4155 30.3006 12.3403 30.4418C12.2652 30.583 12.2417 30.7456 12.2738 30.902C12.3064 31.0606 12.3943 31.2028 12.522 31.3039C12.6497 31.4051 12.8092 31.4587 12.9727 31.4554H33.9416C34.1051 31.4587 34.2646 31.4051 34.3923 31.3039C34.5201 31.2028 34.6079 31.0606 34.6406 30.902C34.6713 30.7431 34.6448 30.5785 34.5656 30.4369C34.4864 30.2954 34.3596 30.1858 34.2072 30.1272Z" fill="#6A6E81"/>
<path d="M18.914 33.1364H14.7482V42.676H18.914V33.1364Z" fill="#6A6E81"/>
<path d="M25.4703 33.1364H21.3044V42.676H25.4703V33.1364Z" fill="#6A6E81"/>
<path d="M32.0264 33.1364H27.8606V42.676H32.0264V33.1364Z" fill="#6A6E81"/>
<path d="M35.6471 37.8198C35.5594 37.8198 35.4751 37.7858 35.4124 37.725C35.3496 37.6642 35.3135 37.5815 35.3116 37.4947C35.3116 37.4066 35.347 37.3221 35.4099 37.2599C35.4728 37.1976 35.5582 37.1626 35.6471 37.1626H50.4861C50.5299 37.1626 50.5732 37.1712 50.6135 37.188C50.6538 37.2048 50.6903 37.2293 50.7209 37.2603C50.7515 37.2912 50.7756 37.3279 50.7917 37.3681C50.8078 37.4084 50.8156 37.4514 50.8146 37.4947C50.8146 37.5809 50.78 37.6636 50.7184 37.7246C50.6568 37.7855 50.5733 37.8198 50.4861 37.8198H35.6471Z" fill="#6A6E81"/>
<path d="M35.6471 36.2978C35.5582 36.2978 35.4728 36.2628 35.4099 36.2006C35.347 36.1383 35.3116 36.0538 35.3116 35.9658C35.3135 35.8789 35.3496 35.7962 35.4124 35.7354C35.4751 35.6746 35.5594 35.6406 35.6471 35.6406H50.4861C50.5733 35.6406 50.6568 35.6749 50.7184 35.7359C50.78 35.7968 50.8146 35.8795 50.8146 35.9658C50.8156 36.009 50.8078 36.0521 50.7917 36.0923C50.7756 36.1326 50.7515 36.1692 50.7209 36.2002C50.6903 36.2311 50.6538 36.2557 50.6135 36.2724C50.5732 36.2892 50.5299 36.2978 50.4861 36.2978H35.6471Z" fill="#6A6E81"/>
<path d="M50.2135 27.5192L43.2238 24.586C43.1663 24.562 43.1045 24.5497 43.0421 24.5497C42.9797 24.5497 42.9179 24.562 42.8604 24.586L35.8707 27.5192C35.7728 27.5625 35.6926 27.6374 35.6431 27.7316C35.5936 27.8258 35.5778 27.9338 35.5981 28.038C35.6192 28.1418 35.676 28.2351 35.7589 28.3019C35.8418 28.3688 35.9455 28.4051 36.0525 28.4046H50.0317C50.1424 28.4107 50.2515 28.3772 50.3392 28.3102C50.4269 28.2431 50.4873 28.1471 50.5093 28.0397C50.5314 27.9322 50.5136 27.8205 50.4593 27.7249C50.405 27.6293 50.3177 27.5563 50.2135 27.5192Z" fill="#6A6E81"/>
<path d="M40.0296 29.5253H37.2617V35.8758H40.0296V29.5253Z" fill="#6A6E81"/>
<path d="M44.3912 29.5253H41.6233V35.8758H44.3912V29.5253Z" fill="#6A6E81"/>
<path d="M48.7526 29.5253H45.9847V35.8758H48.7526V29.5253Z" fill="#6A6E81"/>
</svg>
