<svg width="119" height="74" viewBox="0 0 119 74" fill="none" xmlns="http://www.w3.org/2000/svg">
<path fill-rule="evenodd" clip-rule="evenodd" d="M59.3396 50.3687C62.5021 47.5432 64.5629 43.7144 65.1646 39.5464C65.7663 35.3783 64.871 31.1338 62.6339 27.5491C60.3968 23.9643 56.959 21.2654 52.9168 19.9203C48.8746 18.5753 44.4829 18.669 40.5034 20.1852C36.5238 21.7014 33.2074 24.5444 31.1294 28.2212C29.0513 31.8981 28.3427 36.1768 29.1263 40.3153C29.91 44.4538 32.1365 48.1911 35.4197 50.879C38.703 53.5669 42.8359 55.036 47.1016 55.0313C51.6266 55.0336 55.9899 53.3712 59.3396 50.3687Z" fill="#6A6E81"/>
<path fill-rule="evenodd" clip-rule="evenodd" d="M59.3396 50.3687C61.2334 48.6792 62.7471 46.6165 63.7832 44.3138C64.8193 42.0111 65.3546 39.5196 65.3546 37C65.3546 34.4805 64.8193 31.989 63.7832 29.6863C62.7471 27.3836 61.2334 25.3209 59.3396 23.6313V50.3687Z" fill="#6A6E81"/>
<path fill-rule="evenodd" clip-rule="evenodd" d="M71.6127 18.9687C67.0762 18.961 62.7 20.6236 59.3396 23.6313C58.6948 24.2319 58.0862 24.8694 57.5172 25.5406H61.197C61.7017 26.1424 62.1643 26.8135 62.5989 27.443H56.1154C55.7229 28.0794 55.3654 28.7159 55.043 29.3523H63.6362C63.9166 29.9888 64.204 30.6252 64.4213 31.2616H54.293C54.0762 31.8991 53.896 32.5481 53.7533 33.2055H64.968C65.2314 34.4595 65.3653 35.7366 65.3675 37.0173C65.3704 38.9613 65.0556 40.8931 64.4353 42.7383H54.293C54.5103 43.3747 54.7556 44.0112 55.043 44.6476H63.6362C63.3271 45.3019 62.9783 45.9372 62.5919 46.55H56.1154C56.5426 47.2142 57.0108 47.8519 57.5172 48.4594H61.197C60.6254 49.1392 60.0046 49.7773 59.3396 50.3687C61.5382 52.3307 64.1875 53.7352 67.0589 54.4609C69.9303 55.1866 72.9375 55.2117 75.821 54.5341C78.7044 53.8565 81.3775 52.4965 83.6094 50.5715C85.8413 48.6465 87.5651 46.2144 88.6319 43.485C89.6987 40.7556 90.0765 37.811 89.7327 34.9053C89.3889 31.9997 88.3338 29.2202 86.6585 26.8069C84.9831 24.3936 82.7379 22.4189 80.1166 21.0533C77.4953 19.6877 74.5767 18.9723 71.6127 18.9687Z" fill="#D9DCE0"/>
<path fill-rule="evenodd" clip-rule="evenodd" d="M44.2418 42.0327H41.9498L43.3096 35.0042L40.1975 42.0327H38.263L37.8705 35.0388L36.3635 42.0327H34.2888L36.0411 32.8873H39.6578L39.6929 38.5323L42.1952 32.8873H46.0292L44.2418 42.0327Z" fill="#595959"/>
<path fill-rule="evenodd" clip-rule="evenodd" d="M69.6432 41.9289C69.1077 42.0966 68.5506 42.1874 67.989 42.1987C66.8465 42.1987 66.2017 41.6384 66.2017 40.573C66.2062 40.341 66.2296 40.1096 66.2718 39.8813L66.4189 39.1341L66.5241 38.5738L67.5614 32.8873H69.8184L69.503 34.5891H70.6455L70.3581 36.3877H69.1806L68.5708 39.4939C68.5708 39.6391 68.5708 39.7429 68.5708 39.8121C68.5708 40.1995 68.8231 40.3447 69.3558 40.3447C69.5617 40.363 69.7692 40.3395 69.9656 40.2756L69.6782 41.9358L69.6432 41.9289Z" fill="#595959"/>
<path fill-rule="evenodd" clip-rule="evenodd" d="M60.6293 36.9481C60.6293 37.8682 61.162 38.5392 62.3466 39.0235C63.3138 39.4109 63.454 39.5147 63.454 39.8675C63.454 40.331 63.0265 40.5592 62.1293 40.5592C61.4161 40.5586 60.7071 40.4513 60.0265 40.241L59.7041 41.9774H59.8092L60.2438 42.0466C60.4409 42.0953 60.6435 42.1185 60.8466 42.1158C61.3863 42.1158 61.8139 42.1849 62.1012 42.1849C64.5334 42.1849 65.6479 41.4101 65.6479 39.7153C65.6479 38.6914 65.1783 38.0896 64.0358 37.6399C63.0685 37.2871 62.9634 37.1764 62.9634 36.8236C62.9634 36.4708 63.3559 36.2218 64.0708 36.2218C64.6332 36.2289 65.1947 36.2658 65.753 36.3325L66.1035 34.5892C65.4293 34.4776 64.7474 34.4175 64.0638 34.4093C61.4844 34.4093 60.5592 35.5784 60.6293 36.9551V36.9481Z" fill="#595959"/>
<path fill-rule="evenodd" clip-rule="evenodd" d="M51.6086 42.0327H49.7161V41.2579C49.4018 41.5628 49.0258 41.7987 48.6127 41.9501C48.1996 42.1015 47.7587 42.165 47.319 42.1364C47.0431 42.1562 46.7661 42.1181 46.5061 42.0248C46.2462 41.9315 46.0091 41.785 45.8106 41.5949C45.612 41.4048 45.4564 41.1754 45.354 40.9218C45.2516 40.6682 45.2046 40.3961 45.2162 40.1233C45.2162 38.3247 46.6811 37.2663 49.2184 37.2663C49.5296 37.2624 49.8407 37.2739 50.1507 37.3009C50.1993 37.1511 50.223 36.9946 50.2207 36.8374C50.2207 36.3462 49.8282 36.1456 48.7558 36.1456C48.1288 36.1576 47.5044 36.2294 46.8914 36.36L46.576 36.4638L46.3587 36.4984L46.6811 34.8381C47.5623 34.5689 48.4783 34.4268 49.4007 34.4161C51.3703 34.4161 52.4076 35.1979 52.4076 36.6091C52.4127 37.093 52.3609 37.5758 52.2534 38.048L51.7908 40.6629L51.7137 41.1541L51.6436 41.5484L51.6086 41.7905V42.005V42.0327ZM50.0736 38.7398C49.895 38.7131 49.7144 38.7016 49.5338 38.7052C48.2442 38.7052 47.5993 39.0926 47.5993 39.8328C47.5899 39.9391 47.6055 40.0461 47.645 40.1455C47.6844 40.2448 47.7467 40.3338 47.8267 40.4055C47.9068 40.4772 48.0026 40.5296 48.1067 40.5586C48.2107 40.5877 48.3201 40.5926 48.4264 40.573C48.6583 40.5644 48.8859 40.5096 49.0957 40.4118C49.3055 40.3139 49.493 40.1752 49.647 40.0038C49.8009 39.8325 49.9181 39.6322 49.9914 39.4149C50.0647 39.1977 50.0927 38.968 50.0736 38.7398Z" fill="#595959"/>
<path fill-rule="evenodd" clip-rule="evenodd" d="M59.0523 41.8528C58.2961 42.0688 57.5124 42.176 56.7252 42.1711C54.1879 42.1711 52.8632 41.0089 52.8632 38.8159C52.8632 36.2771 54.5454 34.4023 56.8374 34.4023C58.7298 34.4023 59.9144 35.4608 59.9144 37.0865C59.9087 37.7103 59.8119 38.33 59.627 38.9266H55.1131C55.1004 39.0068 55.1004 39.0885 55.1131 39.1687C55.1131 40.0196 55.814 40.4762 57.1177 40.4762C57.9319 40.4837 58.7379 40.3161 59.4798 39.985L59.0873 41.8528H59.0523ZM57.9799 37.4393V37.0519C57.9799 36.45 57.5873 36.0972 56.9075 36.0972C56.5395 36.1084 56.1879 36.2503 55.9175 36.4968C55.647 36.7434 55.4759 37.0781 55.4355 37.4393H57.9799Z" fill="#595959"/>
<path fill-rule="evenodd" clip-rule="evenodd" d="M83.311 38.643C82.9886 41.1127 81.2083 42.2057 78.9093 42.2057C76.3369 42.2057 75.2996 40.6907 75.2996 38.7814C75.2604 38.1918 75.3492 37.6007 75.56 37.0476C75.7709 36.4946 76.099 35.9924 76.5223 35.5746C76.9456 35.1568 77.4545 34.833 78.0148 34.6249C78.5751 34.4167 79.174 34.3291 79.7714 34.3678C82.1335 34.3678 83.3881 35.8551 83.3881 37.7229C83.4023 38.0316 83.3764 38.3408 83.311 38.643ZM81.026 37.7575C81.026 36.9827 80.7036 36.2425 79.7714 36.2425C78.6289 36.2425 77.8719 37.6261 77.8719 38.7814C77.8719 39.8052 78.3766 40.4762 79.1966 40.4762C79.6425 40.3819 80.0489 40.1561 80.3618 39.8287C80.6748 39.5014 80.8795 39.0878 80.9489 38.643C80.9986 38.3504 81.0244 38.0543 81.026 37.7575Z" fill="#595959"/>
<path fill-rule="evenodd" clip-rule="evenodd" d="M83.5634 40.9051C83.5688 40.7503 83.636 40.604 83.7501 40.4978C83.8643 40.3916 84.0163 40.3341 84.1732 40.3378C84.2489 40.3369 84.3241 40.3509 84.3942 40.3791C84.4644 40.4073 84.5281 40.449 84.5817 40.5019C84.6352 40.5548 84.6775 40.6177 84.7061 40.6869C84.7346 40.7561 84.7489 40.8303 84.7479 40.9051C84.7498 41.0587 84.6908 41.207 84.5834 41.3181C84.476 41.4293 84.3287 41.4946 84.1732 41.5C84.0143 41.4949 83.8632 41.4308 83.7501 41.3205C83.637 41.2102 83.5703 41.0618 83.5634 40.9051ZM84.1732 41.3617C84.2318 41.3599 84.2894 41.3466 84.3428 41.3226C84.3962 41.2986 84.4441 41.2644 84.4839 41.2218C84.5237 41.1793 84.5546 41.1294 84.5746 41.0751C84.5947 41.0207 84.6035 40.9629 84.6007 40.9051C84.6037 40.8486 84.5947 40.7921 84.5743 40.7392C84.554 40.6863 84.5227 40.6382 84.4825 40.5978C84.4423 40.5575 84.394 40.5258 84.3408 40.5049C84.2875 40.484 84.2304 40.4742 84.1732 40.4762C84.114 40.4734 84.0549 40.4824 83.9993 40.5026C83.9438 40.5228 83.8929 40.5538 83.8497 40.5939C83.8066 40.6339 83.772 40.682 83.7481 40.7355C83.7242 40.789 83.7114 40.8466 83.7105 40.9051C83.7124 41.0256 83.7617 41.1407 83.848 41.226C83.9344 41.3112 84.051 41.3599 84.1732 41.3617ZM84.1031 41.1472H83.9559V40.656H84.1732C84.2432 40.656 84.2783 40.656 84.3133 40.656C84.3484 40.656 84.3904 40.7252 84.3904 40.7598C84.3904 40.7944 84.3484 40.9051 84.2783 40.9051L84.3904 41.1126H84.2433L84.1732 40.9397H84.1101V41.1126L84.1031 41.1472ZM84.1031 40.8636H84.2433V40.7598H84.1101V40.8636H84.1031Z" fill="white"/>
<path fill-rule="evenodd" clip-rule="evenodd" d="M44.8096 41.5001H42.5176L43.8774 34.4716L40.7654 41.5001H38.6906L38.3332 34.5062L36.9734 41.5001H34.8987L36.651 32.3547H40.2327L40.4079 38.0066L42.9172 32.3547H46.597L44.8096 41.5001Z" fill="white"/>
<path fill-rule="evenodd" clip-rule="evenodd" d="M70.2178 41.3963C69.6843 41.5593 69.1292 41.6432 68.5707 41.6454C67.4282 41.6454 66.7833 41.0781 66.7833 40.0197C66.7901 39.7877 66.8135 39.5566 66.8534 39.3279L66.9936 38.5877L67.1057 38.0204L68.1431 32.334H70.393L70.0917 34.0496H71.2762L70.9538 35.8552H69.7552L69.1805 38.9613C69.1474 39.065 69.1239 39.1715 69.1104 39.2795C69.1104 39.6669 69.3557 39.8398 69.8954 39.8398C70.1007 39.8402 70.3053 39.8169 70.5052 39.7706L70.2178 41.3963Z" fill="white"/>
<path fill-rule="evenodd" clip-rule="evenodd" d="M76.0495 36.2079V35.9589L76.4771 34.7898C76.3719 34.7898 76.3369 34.7898 76.3018 34.7898C76.2393 34.7911 76.1772 34.7793 76.1196 34.7552H75.9023C75.1523 34.7552 74.6196 35.0734 73.9047 35.9589L74.15 34.6168H71.7879L70.3861 42.0673H72.6431C72.9655 40.3379 73.1057 39.3832 73.2879 38.6084C73.5753 37.2663 74.5776 36.6645 75.3276 36.8029C75.4111 36.7887 75.4964 36.7887 75.5799 36.8029L75.7201 36.872L76.0776 36.2425L76.0495 36.2079Z" fill="#595959"/>
<path fill-rule="evenodd" clip-rule="evenodd" d="M76.8346 34.1187C76.7587 34.0786 76.6751 34.055 76.5893 34.0495C76.4771 34.0495 76.407 34.0495 76.407 33.9803H76.1547C75.4047 33.9803 74.872 34.2986 74.1921 35.1841L74.4024 34.0495H72.2997L70.9329 41.5069H73.2249C74.0449 36.955 74.3674 36.1387 75.4748 36.1387C75.5519 36.1387 75.657 36.1733 75.7622 36.1733L76.0145 36.2494L76.8346 34.1256V34.1187Z" fill="white"/>
<path fill-rule="evenodd" clip-rule="evenodd" d="M61.1971 36.4154C61.1971 37.3355 61.7368 38.0065 62.9564 38.4908C63.8816 38.8782 64.0288 38.9889 64.0288 39.3417C64.0288 39.7983 63.5943 40.0335 62.7041 40.0335C61.9911 40.0303 61.2825 39.923 60.6013 39.7153L60.314 41.4447H60.4191L60.8116 41.5485C60.9588 41.5485 61.1691 41.5485 61.4214 41.5485C61.8488 41.6059 62.2799 41.6313 62.7111 41.6246C65.1082 41.6246 66.2157 40.8429 66.2157 39.148C66.2157 38.1242 65.7531 37.5223 64.5685 37.0726C63.6083 36.7198 63.4961 36.6161 63.4961 36.2633C63.4961 35.9104 63.8886 35.6614 64.6456 35.6614C65.1962 35.666 65.7461 35.7006 66.2928 35.7652L66.6082 34.0703C65.9466 33.9762 65.279 33.9299 64.6106 33.9319C62.0312 33.9319 61.106 35.0596 61.106 36.4362L61.1971 36.4154Z" fill="white"/>
<path fill-rule="evenodd" clip-rule="evenodd" d="M52.1832 41.507H50.3188V40.7322C50.0065 41.0402 49.631 41.2786 49.2175 41.4313C48.804 41.584 48.3621 41.6476 47.9217 41.6177C47.646 41.6363 47.3695 41.5975 47.1101 41.5037C46.8506 41.41 46.6141 41.2635 46.4157 41.0736C46.2174 40.8838 46.0618 40.6548 45.959 40.4018C45.8562 40.1487 45.8084 39.877 45.8189 39.6046C45.8189 37.799 47.2908 36.7406 49.8282 36.7406C50.1387 36.7252 50.4498 36.7252 50.7604 36.7406C50.8095 36.5933 50.8332 36.439 50.8305 36.284C50.8305 35.7859 50.438 35.5922 49.3656 35.5922C48.7399 35.5917 48.1157 35.6496 47.5011 35.7652L47.1787 35.8759H46.9684L47.2908 34.2156C48.1993 33.9845 49.1356 33.8775 50.0735 33.8974C52.0361 33.8974 53.0384 34.6376 53.0384 36.0488C53.0266 36.5489 52.9679 37.0468 52.8631 37.5361L52.3935 40.1787L52.3234 40.6422L52.2533 41.0296V41.2787V41.4862L52.1832 41.507ZM50.5361 38.1864C50.3705 38.1727 50.204 38.1727 50.0384 38.1864C48.7488 38.1864 48.1039 38.5807 48.1039 39.3209C48.0902 39.4259 48.101 39.5326 48.1356 39.6328C48.1702 39.733 48.2276 39.824 48.3034 39.8988C48.3792 39.9737 48.4715 40.0303 48.573 40.0645C48.6745 40.0986 48.7826 40.1093 48.8889 40.0957C49.123 40.0827 49.352 40.0234 49.5625 39.9215C49.7729 39.8195 49.9605 39.6769 50.1141 39.5021C50.2677 39.3272 50.3842 39.1238 50.4567 38.9037C50.5291 38.6837 50.5562 38.4515 50.5361 38.221V38.1864Z" fill="white"/>
<path fill-rule="evenodd" clip-rule="evenodd" d="M59.662 41.3271C58.904 41.5345 58.1215 41.6415 57.335 41.6453C54.7976 41.6453 53.4729 40.4762 53.4729 38.2902C53.4729 35.7444 55.1551 33.8766 57.4401 33.8766C59.3045 33.8766 60.4821 34.935 60.4821 36.5607C60.4754 37.1793 60.393 37.7948 60.2368 38.3939H55.6878V38.643C55.6878 39.4869 56.3326 39.9504 57.6574 39.9504C58.4683 39.954 59.2716 39.7963 60.0195 39.4869L59.662 41.3271ZM58.4424 36.9135V36.5261C58.4424 35.9243 58.0499 35.5715 57.37 35.5715C56.6901 35.5715 56.1574 36.0626 55.9682 36.9135H58.4424Z" fill="white"/>
<path fill-rule="evenodd" clip-rule="evenodd" d="M83.9208 38.1103C83.5633 40.5868 81.818 41.6799 79.484 41.6799C76.9467 41.6799 75.9093 40.1579 75.9093 38.2209C75.8701 37.6313 75.9589 37.0402 76.1698 36.4872C76.3806 35.9342 76.7087 35.432 77.132 35.0142C77.5554 34.5964 78.0642 34.2726 78.6245 34.0644C79.1849 33.8563 79.7837 33.7687 80.3811 33.8074C82.7432 33.8074 83.9909 35.2878 83.9909 37.1625C84.0038 37.4686 83.9803 37.775 83.9208 38.0757V38.1103ZM81.5587 37.1556C81.5587 36.3808 81.2363 35.6752 80.3111 35.6752C79.1615 35.6752 78.4466 37.0172 78.4466 38.2209C78.4466 39.2102 78.9513 39.8812 79.7363 39.8812C80.1795 39.7914 80.5846 39.5705 80.8976 39.248C81.2106 38.9255 81.4167 38.5166 81.4886 38.0757C81.548 37.7727 81.5716 37.4639 81.5587 37.1556Z" fill="white"/>
</svg>
