<svg width="118" height="74" viewBox="0 0 118 74" fill="none" xmlns="http://www.w3.org/2000/svg">
<path d="M38.8935 55.5709C38.7167 55.3976 38.5071 55.2612 38.277 55.1697C38.0306 55.0705 37.7669 55.0211 37.5012 55.0244C37.3456 55.0248 37.1903 55.0387 37.0371 55.0659C36.8748 55.0918 36.7165 55.1383 36.5661 55.2043C36.4058 55.269 36.2563 55.3576 36.1228 55.4672C35.9778 55.5899 35.8558 55.7375 35.7626 55.903C35.5919 55.6318 35.3531 55.41 35.0699 55.2596C34.7716 55.101 34.4381 55.0201 34.1002 55.0244C33.9734 55.0145 33.846 55.0145 33.7192 55.0244C33.5854 55.0467 33.455 55.0862 33.3313 55.142C33.1964 55.1971 33.0704 55.2717 32.9573 55.3634C32.8337 55.4668 32.7264 55.5881 32.6386 55.7231V55.1213H31.6204V60.0399H32.6594V57.3488C32.6557 57.1569 32.6911 56.9663 32.7633 56.7885C32.8219 56.6357 32.9115 56.4967 33.0265 56.3803C33.1367 56.2707 33.2689 56.1858 33.4144 56.1313C33.5676 56.0758 33.7294 56.0476 33.8924 56.0483C34.0448 56.0393 34.1973 56.0645 34.3387 56.122C34.4801 56.1794 34.6068 56.2677 34.7097 56.3803C34.9222 56.6513 35.026 56.9917 35.0007 57.335V60.1021H36.0189V57.3488C36.0152 57.1569 36.0505 56.9663 36.1228 56.7885C36.1813 56.6357 36.2709 56.4967 36.386 56.3803C36.4961 56.2707 36.6284 56.1858 36.7739 56.1313C36.9271 56.0758 37.0889 56.0476 37.2518 56.0483C37.4088 56.0351 37.5666 56.0582 37.7132 56.1157C37.8597 56.1733 37.991 56.2639 38.0969 56.3803C38.3094 56.6513 38.4131 56.9917 38.3878 57.335V60.1021H39.4338V56.9822C39.4364 56.713 39.3895 56.4457 39.2952 56.1935C39.2055 55.9607 39.0687 55.7488 38.8935 55.5709Z" fill="#6A6E81"/>
<path d="M44.4002 55.7508C44.2294 55.5306 44.0117 55.351 43.763 55.2251C43.4812 55.086 43.1698 55.0172 42.8556 55.0244C42.5226 55.0239 42.1929 55.0897 41.8858 55.2181C41.5881 55.3515 41.3198 55.5425 41.0963 55.7799C40.8728 56.0174 40.6985 56.2967 40.5836 56.6017C40.4542 56.9323 40.3884 57.2844 40.3897 57.6394C40.387 57.9945 40.4529 58.3468 40.5836 58.6771C40.7007 58.9826 40.8799 59.2605 41.11 59.4934C41.3295 59.722 41.5935 59.9033 41.8858 60.026C42.1919 60.1578 42.5223 60.2238 42.8556 60.2197C43.1692 60.2292 43.4806 60.1627 43.763 60.026C44.0124 59.8981 44.2302 59.7161 44.4002 59.4934V60.0883H45.4739V55.1559H44.4002V55.7508ZM44.331 58.2412C44.2622 58.4252 44.1587 58.5943 44.0262 58.7393C43.8971 58.8803 43.7387 58.9912 43.5621 59.0645C43.3703 59.1494 43.1623 59.1919 42.9525 59.189C42.7383 59.1919 42.5258 59.1495 42.3291 59.0645C42.1531 58.9839 41.9952 58.8686 41.8651 58.7255C41.7376 58.5766 41.639 58.4053 41.5741 58.2205C41.5038 58.0253 41.4686 57.8192 41.4702 57.6117C41.4692 57.4043 41.5043 57.1983 41.5741 57.0029C41.6375 56.8195 41.7363 56.6502 41.8651 56.5049C41.9934 56.3598 42.1518 56.2441 42.3291 56.1659C42.5239 56.0743 42.7373 56.0293 42.9525 56.0345C43.1623 56.0316 43.3703 56.074 43.5621 56.159C43.7405 56.2321 43.8995 56.3458 44.0262 56.491C44.1621 56.6335 44.266 56.8033 44.331 56.9891C44.4075 57.1876 44.4451 57.399 44.4418 57.6117C44.4452 57.8267 44.4075 58.0403 44.331 58.2412Z" fill="#6A6E81"/>
<path d="M50.4126 57.6047C50.0469 57.3485 49.6232 57.1869 49.1796 57.1343L48.674 57.0582L48.3554 57.0029C48.2672 56.9814 48.1813 56.9512 48.0991 56.9129C48.0314 56.8778 47.9722 56.8282 47.9259 56.7677C47.8785 56.7064 47.854 56.6306 47.8566 56.5532C47.8564 56.4661 47.8793 56.3804 47.9231 56.305C47.967 56.2296 48.0301 56.1673 48.106 56.1243C48.3167 56.0057 48.5572 55.9504 48.7987 55.9652C48.9497 55.965 49.1005 55.9789 49.2489 56.0067C49.3939 56.0332 49.5373 56.0678 49.6784 56.1105C49.8007 56.1479 49.9209 56.1917 50.0385 56.2419C50.1494 56.2973 50.2394 56.3388 50.3156 56.3872L50.7797 55.5501C50.5021 55.3756 50.198 55.2471 49.8792 55.1697C49.522 55.0764 49.1541 55.0299 48.7848 55.0313C48.4992 55.0265 48.2145 55.0638 47.9398 55.142C47.7091 55.209 47.4914 55.3143 47.2956 55.4533C47.1245 55.5857 46.9869 55.7563 46.8938 55.9514C46.7893 56.1666 46.7394 56.4041 46.7484 56.6431C46.7428 56.8254 46.7786 57.0065 46.8529 57.173C46.9273 57.3395 47.0384 57.4871 47.1778 57.6047C47.5386 57.8806 47.9716 58.0464 48.4246 58.0821L48.9372 58.1512C49.163 58.1709 49.3823 58.2368 49.5814 58.3449C49.6426 58.3802 49.6938 58.4305 49.7302 58.491C49.7665 58.5515 49.7869 58.6203 49.7892 58.6908C49.7879 58.7837 49.7606 58.8744 49.7105 58.9527C49.6603 59.0309 49.5892 59.0936 49.5052 59.1336C49.2441 59.2576 48.9555 59.3124 48.6671 59.2927C48.4861 59.2943 48.3054 59.2804 48.1268 59.2512C47.9783 59.2274 47.8322 59.1904 47.6904 59.1405C47.5668 59.1014 47.4482 59.048 47.3371 58.9814C47.2366 58.9248 47.1395 58.8624 47.0462 58.7946L46.5475 59.5971C46.7197 59.7291 46.9083 59.8384 47.1086 59.9222C47.2946 60.0022 47.4869 60.067 47.6835 60.1159C47.8591 60.1576 48.0372 60.1876 48.2168 60.2058H48.6601C48.9782 60.2125 49.2955 60.1729 49.6022 60.0882C49.8527 60.0241 50.088 59.9112 50.2948 59.7562C50.48 59.6263 50.6304 59.4531 50.7331 59.2517C50.8357 59.0503 50.8874 58.8268 50.8836 58.6009C50.8919 58.4091 50.8534 58.2183 50.7713 58.0447C50.6892 57.8712 50.5661 57.7202 50.4126 57.6047Z" fill="#6A6E81"/>
<path d="M60.4632 55.7438C60.2619 55.5132 60.0109 55.3311 59.729 55.2111C59.4315 55.0838 59.1106 55.0201 58.787 55.0244C58.4476 55.0202 58.1109 55.0837 57.7964 55.2111C57.5022 55.3304 57.2375 55.5122 57.0206 55.7438C56.801 55.9808 56.6293 56.258 56.515 56.5601C56.393 56.8972 56.332 57.2532 56.3349 57.6116C56.3296 57.9753 56.393 58.3368 56.5219 58.677C56.6384 58.9812 56.815 59.2588 57.0414 59.4933C57.2679 59.7198 57.5392 59.8965 57.838 60.0121C58.1697 60.1369 58.5227 60.1957 58.877 60.1851C59.2382 60.1879 59.5978 60.1366 59.9437 60.0329C60.2892 59.9189 60.6075 59.7353 60.8788 59.4933L60.3455 58.7254C60.1381 58.8926 59.9039 59.0236 59.6528 59.1128C59.4153 59.1993 59.1645 59.2438 58.9116 59.2442C58.7406 59.2465 58.5701 59.2231 58.406 59.1751C58.249 59.1267 58.1014 59.0518 57.9696 58.9537C57.8357 58.8463 57.7229 58.7149 57.6371 58.5663C57.5356 58.3894 57.4697 58.1943 57.4432 57.9921H61.0936V57.7984V57.5909C61.1088 57.2418 61.0619 56.8928 60.955 56.5601C60.8491 56.2571 60.6817 55.9792 60.4632 55.7438ZM57.4917 57.1896C57.518 57.0202 57.5669 56.855 57.6371 56.6985C57.7003 56.5564 57.7896 56.4273 57.9003 56.318C58.0067 56.2071 58.137 56.122 58.2813 56.069C58.4449 56.0069 58.6189 55.9764 58.7939 55.979C58.9478 55.9737 59.1012 55.9991 59.2451 56.0537C59.389 56.1084 59.5205 56.1912 59.632 56.2972C59.8619 56.5431 60.0075 56.8557 60.0476 57.1896H57.4917Z" fill="#6A6E81"/>
<path d="M74.7323 55.7508C74.563 55.5291 74.345 55.3492 74.095 55.225C73.8134 55.0854 73.5019 55.0166 73.1876 55.0244C72.8569 55.0238 72.5295 55.0897 72.2248 55.2181C71.93 55.3431 71.6637 55.5267 71.4421 55.7577C71.2137 55.9919 71.0347 56.2694 70.9157 56.574C70.7886 56.9051 70.7252 57.2571 70.7286 57.6117C70.7238 57.9663 70.7873 58.3186 70.9157 58.6493C71.0345 58.956 71.2135 59.2359 71.4421 59.4726C71.6726 59.6977 71.9456 59.8748 72.2453 59.9936C72.545 60.1123 72.8653 60.1704 73.1876 60.1643C73.5014 60.1743 73.8128 60.1079 74.095 59.9707C74.345 59.8465 74.563 59.6666 74.7323 59.4449V60.0398H75.8059V55.1558H74.7323V55.7508ZM74.6907 58.2412C74.6217 58.4235 74.5209 58.5922 74.3929 58.7393C74.2603 58.8792 74.0998 58.99 73.9219 59.0644C73.7325 59.1494 73.5268 59.1919 73.3192 59.1889C73.1138 59.1976 72.909 59.1606 72.7197 59.0804C72.5304 59.0002 72.3614 58.879 72.2248 58.7254C72.0974 58.5765 71.9988 58.4053 71.9339 58.2204C71.8635 58.0252 71.8284 57.8191 71.83 57.6117C71.8289 57.4043 71.8641 57.1983 71.9339 57.0029C71.9972 56.8194 72.0961 56.6502 72.2248 56.5048C72.3541 56.3607 72.5122 56.2452 72.6889 56.1658C72.8834 56.0813 73.0933 56.0377 73.3054 56.0377C73.5175 56.0377 73.7274 56.0813 73.9219 56.1658C74.1014 56.2406 74.2622 56.354 74.3929 56.4979C74.5238 56.6429 74.625 56.8121 74.6907 56.996C74.7673 57.1945 74.8049 57.4059 74.8015 57.6186C74.804 57.8312 74.7664 58.0424 74.6907 58.2412Z" fill="#6A6E81"/>
<path d="M55.0189 59.092C54.8548 59.1535 54.6814 59.1863 54.5063 59.1889C54.4022 59.1892 54.2989 59.1704 54.2015 59.1335C54.105 59.1051 54.0186 59.0499 53.9521 58.9744C53.8779 58.8922 53.8213 58.7957 53.7859 58.6908C53.7412 58.5547 53.7202 58.412 53.7236 58.2688V56.1312H55.4483V55.1558H53.7236V53.6685H52.643V55.1558H51.6663V56.1312H52.643V58.2896C52.6005 58.8138 52.7674 59.3335 53.1071 59.7354C53.2816 59.8965 53.4869 60.0206 53.7107 60.1002C53.9345 60.1799 54.1722 60.2134 54.4093 60.1989C54.6976 60.2031 54.9841 60.1539 55.2544 60.0536C55.4118 59.9933 55.5646 59.9217 55.7115 59.8392L55.3444 58.9398C55.2393 58.9975 55.1306 59.0484 55.0189 59.092Z" fill="#6A6E81"/>
<path d="M64.7093 55.0244C64.4282 55.0212 64.1495 55.0778 63.892 55.1904C63.6416 55.34 63.4321 55.5491 63.2824 55.7992V55.1558H62.3404V60.0744H63.3309V57.3695C63.3272 57.1794 63.3553 56.9901 63.414 56.8092C63.4664 56.6561 63.5488 56.515 63.6565 56.3941C63.758 56.2792 63.8866 56.1913 64.0305 56.1382C64.1794 56.0753 64.3399 56.0446 64.5015 56.0482C64.6437 56.0484 64.7855 56.0646 64.9241 56.0967L65.1388 56.152L65.4574 55.1282C65.3715 55.0987 65.2835 55.0755 65.1942 55.059C65.0338 55.0339 64.8716 55.0224 64.7093 55.0244Z" fill="#6A6E81"/>
<path d="M79.6572 55.0244C79.3759 55.0199 79.097 55.0766 78.8398 55.1904C78.5874 55.3398 78.3757 55.5488 78.2233 55.7992V55.1559H77.2536V60.0744H78.2372V57.3696C78.2321 57.1788 78.2626 56.9888 78.3272 56.8092C78.3772 56.6566 78.4573 56.5154 78.5628 56.3941C78.6643 56.2793 78.7928 56.1913 78.9368 56.1382C79.0858 56.0759 79.2463 56.0452 79.4078 56.0483C79.55 56.0484 79.6918 56.0647 79.8303 56.0967L80.0451 56.152L80.3637 55.1282C80.2778 55.0987 80.1898 55.0756 80.1005 55.059C79.9538 55.0361 79.8056 55.0245 79.6572 55.0244Z" fill="#6A6E81"/>
<path d="M84.6583 53.1566V55.7508C84.473 55.5227 84.2368 55.3413 83.9685 55.2211C83.7002 55.101 83.4073 55.0454 83.1136 55.059C82.7807 55.0585 82.451 55.1243 82.1439 55.2527C81.8442 55.3831 81.5743 55.573 81.3504 55.8109C81.1265 56.0487 80.9534 56.3295 80.8416 56.6363C80.709 56.966 80.6431 57.3187 80.6477 57.674C80.6418 58.0294 80.7078 58.3823 80.8416 58.7116C80.9581 59.0179 81.1347 59.2978 81.3612 59.5349C81.5843 59.7622 81.8503 59.9433 82.1439 60.0675C82.4576 60.1744 82.7903 60.2144 83.1205 60.1851C83.4146 60.2015 83.7084 60.1473 83.9771 60.0269C84.2459 59.9065 84.4818 59.7236 84.6652 59.4934V60.0883H85.7388V53.1705L84.6583 53.1566ZM84.6167 58.2412C84.5479 58.4252 84.4445 58.5943 84.3119 58.7393C84.1813 58.8785 84.0233 58.9892 83.8478 59.0644C83.6527 59.1466 83.4431 59.189 83.2314 59.189C83.0196 59.189 82.81 59.1466 82.6149 59.0644C82.4389 58.9839 82.281 58.8686 82.1508 58.7255C82.0208 58.5784 81.9219 58.4066 81.8599 58.2205C81.7895 58.0253 81.7544 57.8192 81.756 57.6117C81.7549 57.4043 81.7901 57.1983 81.8599 57.0029C81.9207 56.8183 82.0199 56.6486 82.1508 56.5048C82.2792 56.3597 82.4375 56.2441 82.6149 56.1659C82.8096 56.0743 83.0231 56.0293 83.2383 56.0344C83.448 56.0322 83.6558 56.0746 83.8478 56.159C84.0252 56.234 84.1837 56.3474 84.3119 56.491C84.4478 56.6335 84.5517 56.8033 84.6167 56.9891C84.6899 57.1885 84.7274 57.3993 84.7275 57.6117C84.7275 57.8264 84.69 58.0394 84.6167 58.2412Z" fill="#6A6E81"/>
<path d="M67.2791 56.4771C67.4197 56.3371 67.5869 56.2265 67.7709 56.152C67.9646 56.0739 68.1716 56.034 68.3805 56.0344C68.6166 56.0308 68.8514 56.0707 69.0731 56.152C69.2657 56.2239 69.4439 56.3293 69.5996 56.4633L70.1121 55.6055C69.9162 55.4457 69.6965 55.3173 69.461 55.225C69.1243 55.0894 68.7643 55.0213 68.4012 55.0244C68.0406 55.0222 67.6829 55.0903 67.3484 55.225C67.0364 55.3485 66.7517 55.5318 66.5103 55.7646C66.2724 55.9994 66.084 56.2793 65.9561 56.5878C65.8212 56.9122 65.7529 57.2604 65.7552 57.6117C65.7529 57.9652 65.8212 58.3156 65.9561 58.6424C66.0808 58.9549 66.268 59.2388 66.5062 59.4766C66.7444 59.7145 67.0286 59.9014 67.3415 60.026C67.6748 60.1646 68.0333 60.233 68.3943 60.2266C68.7576 60.2323 69.1182 60.1641 69.4541 60.026C69.688 59.9334 69.9073 59.8075 70.1052 59.6524L69.5926 58.7877C69.437 58.9217 69.2587 59.0271 69.0662 59.099C68.8445 59.1803 68.6097 59.2202 68.3735 59.2166C68.1647 59.217 67.9577 59.1771 67.764 59.099C67.5786 59.0271 67.4109 58.9162 67.2722 58.7739C67.1364 58.6313 67.0283 58.4648 66.9536 58.2827C66.7965 57.8705 66.7965 57.4151 66.9536 57.0029C67.0253 56.8074 67.136 56.6285 67.2791 56.4771Z" fill="#6A6E81"/>
<path d="M88.1701 59.3896C88.1067 59.362 88.0383 59.3479 87.9692 59.3481C87.8978 59.3471 87.827 59.3612 87.7614 59.3896C87.6996 59.4158 87.6432 59.4534 87.5952 59.5003C87.549 59.5463 87.5115 59.6002 87.4844 59.6594C87.4732 59.7235 87.4732 59.789 87.4844 59.8531C87.4739 59.9172 87.4739 59.9826 87.4844 60.0468C87.5131 60.105 87.5505 60.1587 87.5952 60.2059C87.6432 60.2528 87.6996 60.2903 87.7614 60.3166C87.8299 60.3309 87.9007 60.3309 87.9692 60.3166C88.0355 60.3304 88.1039 60.3304 88.1701 60.3166C88.2309 60.2921 88.2853 60.2542 88.3294 60.2059C88.3763 60.1605 88.4139 60.1065 88.4402 60.0468C88.4679 59.9859 88.4821 59.9199 88.4818 59.8531C88.4804 59.754 88.4501 59.6574 88.3948 59.5751C88.3395 59.4929 88.2614 59.4284 88.1701 59.3896Z" fill="white"/>
<path d="M58.6415 46.7022C62.5321 46.7022 65.686 40.1981 65.686 32.1748C65.686 24.1515 62.5321 17.6473 58.6415 17.6473C54.751 17.6473 51.597 24.1515 51.597 32.1748C51.597 40.1981 54.751 46.7022 58.6415 46.7022Z" fill="#9B9EAD"/>
<path d="M51.597 32.1748C51.5947 29.3789 52.2274 26.6189 53.4476 24.1026C54.6678 21.5862 56.4437 19.3791 58.6415 17.6474C55.9081 15.487 52.6204 14.1396 49.1555 13.7596C45.6905 13.3796 42.1884 13.9823 39.0507 15.4986C35.9129 17.015 33.2665 19.3837 31.4147 22.3332C29.5629 25.2826 28.5807 28.6935 28.5807 32.1748C28.5807 35.6561 29.5629 39.067 31.4147 42.0165C33.2665 44.9659 35.9129 47.3346 39.0507 48.851C42.1884 50.3674 45.6905 50.9701 49.1555 50.59C52.6204 50.21 55.9081 48.8626 58.6415 46.7023C56.4448 44.9695 54.6698 42.7622 53.4497 40.246C52.2296 37.7299 51.5962 34.9705 51.597 32.1748Z" fill="#6A6E81"/>
<path d="M70.1468 13.642C65.9683 13.6382 61.9122 15.0503 58.6415 17.6474C60.8372 19.381 62.6114 21.5885 63.8311 24.1045C65.0509 26.6204 65.6845 29.3795 65.6845 32.1748C65.6845 34.9702 65.0509 37.7292 63.8311 40.2452C62.6114 42.7611 60.8372 44.9687 58.6415 46.7023C60.963 48.5347 63.6897 49.7859 66.594 50.3515C69.4982 50.917 72.4959 50.7804 75.3365 49.9532C78.1772 49.1259 80.7785 47.632 82.9233 45.596C85.068 43.5601 86.694 41.0413 87.6654 38.2499C88.6368 35.4586 88.9255 32.4756 88.5074 29.5501C88.0893 26.6245 86.9765 23.8413 85.2618 21.4329C83.5472 19.0244 81.2806 17.0605 78.6512 15.7052C76.0217 14.3499 73.1058 13.6425 70.1468 13.642Z" fill="#D9DCE0"/>
<path fill-rule="evenodd" clip-rule="evenodd" d="M28.4826 46.1073C28.4916 45.8963 28.5829 45.6972 28.7369 45.5524C28.8909 45.4076 29.0954 45.3287 29.3069 45.3325C29.409 45.3316 29.5103 45.351 29.6049 45.3896C29.6994 45.4282 29.7853 45.4853 29.8575 45.5574C29.9297 45.6295 29.9868 45.7153 30.0255 45.8097C30.0642 45.9042 30.0836 46.0053 30.0827 46.1073C30.0865 46.3185 30.0075 46.5228 29.8625 46.6766C29.7176 46.8304 29.5182 46.9216 29.3069 46.9305C29.0905 46.9236 28.8848 46.8347 28.7317 46.6818C28.5786 46.5289 28.4895 46.3235 28.4826 46.1073ZM29.3069 46.7368C29.3866 46.7342 29.4651 46.7157 29.5376 46.6825C29.6102 46.6494 29.6754 46.6021 29.7296 46.5436C29.7837 46.485 29.8256 46.4163 29.853 46.3414C29.8803 46.2665 29.8924 46.1869 29.8887 46.1073C29.8916 46.0302 29.8786 45.9534 29.8504 45.8816C29.8222 45.8097 29.7794 45.7445 29.7248 45.69C29.6702 45.6354 29.6049 45.5927 29.5329 45.5645C29.461 45.5364 29.3841 45.5233 29.3069 45.5262C29.2272 45.5225 29.1475 45.5347 29.0725 45.5619C28.9975 45.5892 28.9287 45.6311 28.8701 45.6852C28.8115 45.7392 28.7641 45.8044 28.7309 45.8769C28.6977 45.9493 28.6792 46.0277 28.6766 46.1073C28.6801 46.2732 28.7476 46.4313 28.8651 46.5486C28.9825 46.6659 29.1408 46.7333 29.3069 46.7368ZM29.2099 46.4463H29.016V45.7545H29.3069C29.4039 45.7545 29.4523 45.7545 29.5008 45.8029C29.5493 45.8514 29.5978 45.8998 29.5978 45.9482C29.5978 45.9966 29.5493 46.1419 29.4523 46.1419L29.5978 46.4325H29.4039L29.3069 46.1903H29.2099V46.4325V46.4463ZM29.2099 46.0589H29.4039V45.9136H29.2099V46.0589Z" fill="#262626"/>
</svg>
