<svg width="118" height="74" viewBox="0 0 118 74" fill="none" xmlns="http://www.w3.org/2000/svg">
<path d="M49.519 46.1834L52.643 27.865H57.6441L54.5201 46.1834H49.519Z" fill="#6A6E81"/>
<path d="M72.6474 28.3147C71.2102 27.7982 69.6932 27.5383 68.1658 27.5468C63.227 27.5468 59.7498 30.0303 59.7221 33.593C59.7221 36.2218 62.2019 37.6884 64.0998 38.5669C65.9977 39.4455 66.6973 40.0404 66.6904 40.836C66.6904 42.0674 65.1388 42.6277 63.6981 42.6277C62.0768 42.676 60.4666 42.3467 58.9948 41.6661L58.3506 41.3756L57.658 45.4778C59.4323 46.1296 61.3088 46.4599 63.1993 46.4533C68.4567 46.4533 71.8646 43.9974 71.9062 40.1926C71.9062 38.1173 70.5971 36.5262 67.7086 35.2187C65.9631 34.3747 64.8894 33.8351 64.9379 32.9497C64.9864 32.0642 65.8453 31.3724 67.7987 31.3724C69.08 31.3418 70.3537 31.5774 71.5391 32.0642L71.9893 32.2786L72.682 28.3078" fill="#6A6E81"/>
<path d="M85.4617 27.8857H81.6035C80.4052 27.8857 79.5255 28.2109 78.9852 29.4007L71.5598 46.1834H76.8103C76.8103 46.1834 77.6692 43.9282 77.8631 43.4163H84.2634C84.4158 44.0527 84.8729 46.1834 84.8729 46.1834H89.5138L85.4617 27.8857ZM79.3039 39.6876L81.2918 34.5684C81.2918 34.6168 81.7005 33.5099 81.9845 32.8182L82.3239 34.4023L83.4807 39.6876H79.3039Z" fill="#6A6E81"/>
<path d="M45.3284 27.8789L40.4381 40.3656L39.9117 37.8267C39.0043 34.9074 36.1643 31.7321 32.985 30.148L37.4596 46.1627H42.7447L50.6204 27.8789H45.3284Z" fill="#6A6E81"/>
<path d="M35.8942 27.865H27.8315L27.7692 28.2455C34.0448 29.7674 38.1592 33.4269 39.9117 37.8267L38.1592 29.4146C37.8614 28.2524 36.9817 27.9065 35.8942 27.865Z" fill="#ADB1B8"/>
</svg>
