<svg width="59" height="59" fill="none" xmlns="http://www.w3.org/2000/svg"><path d="M58 29.5C58 13.768 45.232 1 29.5 1S1 13.768 1 29.5 13.768 58 29.5 58 58 45.232 58 29.5Z" fill="#FF4521" stroke="#fff" stroke-width="2"/><path d="M42.76 28.19c0-5.996-6.02-10.868-13.45-10.868S15.863 22.194 16.05 28.19c0 2.436.94 4.685 2.633 6.465 0 0-1.693 4.966-1.035 5.34 1.035.656 6.49-1.78 7.619-1.499 1.975.469 4.138.656 6.207.375 6.395-.75 11.286-5.247 11.286-10.68Z" fill="#fff"/><path fill-rule="evenodd" clip-rule="evenodd" d="M24.195 26.748c1.135 0 2.063.662 2.063 1.49 0 .826-.825 1.653-1.857 1.653-1.134 0-2.063-.661-2.063-1.488v-.083c-.103-.827.722-1.572 1.857-1.572ZM29.318 26.748c.91 0 1.654.662 1.654 1.49 0 .826-.662 1.653-1.489 1.653-.91 0-1.654-.661-1.654-1.488v-.083c0-.827.662-1.572 1.489-1.572ZM34.819 26.748c.91 0 1.654.662 1.654 1.49 0 .826-.662 1.653-1.489 1.653-.91 0-1.654-.661-1.654-1.488v-.083c0-.827.662-1.572 1.489-1.572Z" fill="#FF4521"/></svg>
