<svg width="45" height="26" fill="none" xmlns="http://www.w3.org/2000/svg"><path d="M32 26c7.18 0 13-5.82 13-13S39.18 0 32 0 19 5.82 19 13s5.82 13 13 13Z" fill="#0052B4"/><path d="m31.718 5.667.415 1.278h1.344l-1.087.79.415 1.278-1.087-.79-1.087.79.415-1.278-1.087-.79h1.344l.415-1.278Zm-5.522 2.287 1.2.61.95-.95-.21 1.328 1.2.61-1.328.21-.21 1.328-.61-1.2-1.327.21.95-.95-.615-1.196Zm-2.287 5.522 1.278-.415v-1.344l.79 1.087 1.278-.415-.79 1.087.79 1.087-1.278-.415-.79 1.087v-1.344l-1.278-.415Zm2.287 5.522.61-1.2-.95-.95 1.328.21.61-1.2.21 1.328 1.328.21-1.2.61.21 1.327-.95-.951-1.196.616Zm5.522 2.287-.415-1.278h-1.344l1.087-.79-.415-1.278 1.087.79 1.087-.79-.415 1.278 1.087.79h-1.344l-.415 1.278Zm5.521-2.287-1.2-.61-.95.95.21-1.327-1.2-.61 1.327-.21.21-1.328.61 1.2 1.328-.21-.95.951.615 1.194Zm2.288-5.522-1.278.415v1.344l-.79-1.087-1.278.415.79-1.087-.79-1.087 1.278.415.79-1.087v1.344l1.278.415Zm-2.288-5.522-.61 1.2.95.95-1.328-.21-.61 1.2-.21-1.328-1.327-.21 1.2-.61-.21-1.327.95.95 1.195-.615Z" fill="#FFDA44"/><path d="M13 0a13 13 0 1 1 0 26 13 13 0 0 1 0-26Z" fill="#E6B552"/><path d="M10.275 10.431h4.668a.531.531 0 0 0 .491-.737l-.986-2.366A.532.532 0 0 0 13.957 7h-2.7a.532.532 0 0 0-.491.328l-.979 2.365a.532.532 0 0 0 .488.738Zm7.053.476h-2.7a.53.53 0 0 0-.491.328l-.986 2.366a.533.533 0 0 0 .491.737h4.668a.533.533 0 0 0 .492-.737l-.986-2.366a.533.533 0 0 0-.488-.328Zm-6.741 0h-2.7a.531.531 0 0 0-.491.328l-.986 2.366a.532.532 0 0 0 .492.737h4.668a.533.533 0 0 0 .492-.737l-.986-2.366a.532.532 0 0 0-.489-.328Zm3.862 4.306a.532.532 0 0 0-.491-.328h-2.7a.533.533 0 0 0-.491.328l-.98 2.365a.532.532 0 0 0 .491.737h4.668a.532.532 0 0 0 .491-.737l-.988-2.365Zm-6.742 0a.532.532 0 0 0-.491-.328h-2.7a.533.533 0 0 0-.491.328l-.986 2.366a.532.532 0 0 0 .492.737h4.668a.531.531 0 0 0 .492-.737l-.984-2.366Zm13.484 0a.532.532 0 0 0-.491-.328H18a.532.532 0 0 0-.492.328l-.986 2.366a.532.532 0 0 0 .491.737h4.668a.533.533 0 0 0 .491-.737l-.981-2.366Z" fill="#fff"/></svg>