<svg width="45" height="26" fill="none" xmlns="http://www.w3.org/2000/svg"><path d="M13 0a13 13 0 1 1 0 26 13 13 0 0 1 0-26Z" fill="#E6B552"/><path d="M10.275 10.431h4.668a.531.531 0 0 0 .491-.737l-.986-2.366A.532.532 0 0 0 13.957 7h-2.7a.532.532 0 0 0-.491.328l-.979 2.365a.532.532 0 0 0 .488.738Zm7.053.476h-2.7a.53.53 0 0 0-.491.328l-.986 2.366a.533.533 0 0 0 .491.737h4.668a.533.533 0 0 0 .492-.737l-.986-2.366a.533.533 0 0 0-.488-.328Zm-6.741 0h-2.7a.531.531 0 0 0-.491.328l-.986 2.366a.532.532 0 0 0 .492.737h4.668a.533.533 0 0 0 .492-.737l-.986-2.366a.532.532 0 0 0-.489-.328Zm3.862 4.306a.532.532 0 0 0-.491-.328h-2.7a.533.533 0 0 0-.491.328l-.98 2.365a.532.532 0 0 0 .491.737h4.668a.532.532 0 0 0 .491-.737l-.988-2.365Zm-6.742 0a.532.532 0 0 0-.491-.328h-2.7a.533.533 0 0 0-.491.328l-.986 2.366a.532.532 0 0 0 .492.737h4.668a.531.531 0 0 0 .492-.737l-.984-2.366Zm13.484 0a.532.532 0 0 0-.491-.328H18a.532.532 0 0 0-.492.328l-.986 2.366a.532.532 0 0 0 .491.737h4.668a.533.533 0 0 0 .491-.737l-.981-2.366Z" fill="#fff"/><path d="M32.78 14.005h12.182c.024-.333.038-.665.038-1.005 0-.336-.014-.673-.038-1.005H32.78v2.01Z" fill="#BF0A30"/><path d="M32.78 11.995h12.182a13.164 13.164 0 0 0-.312-2.007H32.78v2.007Z" fill="#fff"/><path d="M32.78 7.98v2.008h11.87a12.706 12.706 0 0 0-.655-2.008H32.78Z" fill="#BF0A30"/><path d="M32.78 7.98h11.215a12.873 12.873 0 0 0-1.058-2.007H32.78V7.98Z" fill="#fff"/><path d="M32.78 5.973h10.157a13.103 13.103 0 0 0-1.59-2.007H32.78v2.007Z" fill="#BF0A30"/><path d="M32.78 3.962h8.566a12.975 12.975 0 0 0-2.485-2.007H32.78v2.007Z" fill="#fff"/><path d="M38.86 1.955A12.952 12.952 0 0 0 32.78.021v1.934h6.08ZM32 26c2.517 0 4.87-.718 6.86-1.955H25.14A12.956 12.956 0 0 0 32 26Z" fill="#BF0A30"/><path d="M25.14 24.045h13.72a13.086 13.086 0 0 0 2.486-2.007H22.654a13.219 13.219 0 0 0 2.486 2.007Z" fill="#fff"/><path d="M22.654 22.038h18.692a13.102 13.102 0 0 0 1.591-2.008H21.063c.464.718.998 1.39 1.59 2.008Z" fill="#BF0A30"/><path d="M21.063 20.027H42.94c.409-.634.762-1.303 1.057-2.007H20.005c.295.704.649 1.376 1.058 2.007Z" fill="#fff"/><path d="M20.005 18.02h23.99c.27-.645.488-1.318.655-2.008h-25.3c.166.694.385 1.363.655 2.008Z" fill="#BF0A30"/><path d="M32.78 14.005H19.038c.052.687.16 1.356.312 2.008h25.3c.156-.652.26-1.321.312-2.008H32.78Z" fill="#fff"/><path d="m27.854.676.142.413h.562l-.451.353.166.544-.468-.325-.482.325.188-.544-.479-.353h.593l.121-.378a13.002 13.002 0 0 0-4.43 2.61l.02.07-.055-.039a13.031 13.031 0 0 0-2.676 3.373h.44l.18-.547.188.547h.568l-.45.354.166.544-.468-.326-.482.326.187-.544-.37-.274c-.233.426-.44.87-.625 1.324h.389l-.45.354.166.544-.354-.246a12.86 12.86 0 0 0-.538 2.167h.243l.18-.548.188.548h.561l-.45.353.166.545-.468-.326-.482.326.198-.545-.163-.121A13.154 13.154 0 0 0 19 13c0 .33.014.655.035.978h13.742V.024a12.929 12.929 0 0 0-4.923.652ZM21.7 13.26l-.468-.326-.482.326.187-.544-.479-.354h.593l.18-.548.188.548h.561l-.45.354.17.544Zm-.17-3.363.166.545-.468-.326-.482.326.187-.545-.478-.353h.593l.18-.548.187.548h.565l-.45.353Zm1.813 1.952-.468-.326-.482.326.187-.544-.478-.354h.592l.18-.548.188.548h.562l-.451.354.17.544Zm-.17-3.366.166.544-.468-.326-.482.326.188-.544-.479-.354h.593l.18-.547.188.547h.561l-.447.354Zm0-2.808.166.544-.468-.326-.482.326.188-.544-.479-.354h.593l.18-.547.188.547h.561l-.447.354Zm1.813 7.585-.468-.326-.482.326.187-.544-.478-.354h.593l.18-.548.187.548h.562l-.45.354.169.544Zm-.166-3.363.166.545-.468-.326-.482.326.187-.545-.478-.353h.593l.18-.548.187.548h.562l-.448.353Zm0-2.818.166.544-.468-.326-.482.326.187-.544-.478-.354h.593l.18-.547.187.547h.562l-.448.354Zm0-2.818.166.544-.468-.326-.482.326.187-.544-.478-.354h.593l.18-.548.187.548h.562l-.448.354Zm1.81 7.588-.469-.326-.482.326.188-.544-.479-.354h.593l.18-.548.187.548h.562l-.45.354.17.544Zm-.167-3.366.166.544-.468-.326-.482.326.188-.544-.479-.354h.593l.18-.547.187.547h.562l-.447.354Zm0-2.808.166.544-.468-.326-.482.326.188-.544-.479-.354h.593l.18-.547.187.547h.562l-.447.354Zm0-2.832.166.544-.468-.326-.482.326.188-.544-.479-.354h.593l.18-.548.187.548h.562l-.447.354Zm1.813 10.417-.468-.326-.482.326.187-.544-.478-.354h.593l.18-.548.187.548h.562l-.451.354.17.544Zm-.167-3.363.167.545-.468-.326-.482.326.187-.545-.478-.353h.593l.18-.548.187.548h.562l-.448.353Zm0-2.818.167.544-.468-.326-.482.326.187-.544-.478-.354h.593l.18-.547.187.547h.562l-.448.354Zm0-2.818.167.544-.468-.326-.482.326.187-.544-.478-.354h.593l.18-.548.187.548h.562l-.448.354Zm1.81 7.588-.468-.326-.482.326.187-.548-.478-.353h.593l.18-.548.187.548h.562l-.45.353.169.548Zm-.166-3.366.166.544-.468-.326-.482.326.187-.544-.478-.354h.593l.18-.547.187.547h.562l-.447.354Zm0-2.808.166.544-.468-.326-.482.326.187-.544-.478-.354h.593l.18-.547.187.547h.562l-.447.354Zm0-2.832.166.544-.468-.326-.482.326.187-.544-.478-.354h.593l.18-.548.187.548h.562l-.447.354Zm1.813 10.417-.468-.326-.482.326.187-.544-.478-.354h.592l.18-.548.188.548h.561l-.45.354.17.544Zm-.17-3.363.166.545-.468-.326-.482.326.188-.545-.479-.353h.593l.18-.548.187.548h.562l-.447.353Zm0-2.818.166.544-.468-.326-.482.326.188-.544-.475-.354h.592l.18-.547.188.547h.561l-.45.354Zm0-2.818.166.544-.468-.326-.482.326.188-.544-.479-.354h.593l.18-.548.187.548h.562l-.447.354Zm0-2.822.166.544-.464-.322-.482.325.187-.544-.478-.353h.592l.18-.548.188.548h.561l-.45.35Z" fill="#002868"/><path d="M32.78 13.977H19.035c0 .008 0 .018.003.025H32.78v-.025Z" fill="#002868"/><path d="m27.809.537-.056.174c.035-.01.07-.025.104-.035L27.81.537Z" fill="#fff"/><path d="m27.036 1.085.478.354-.187.544.482-.326.468.326-.167-.544.451-.354h-.562l-.142-.413c-.034.01-.07.025-.104.035l-.121.378h-.596Zm4.063-.548-.18.548h-.593l.478.354-.187.547.482-.325.468.325-.17-.547.45-.354h-.561l-.187-.548Zm-1.647 1.404-.177.548h-.593l.475.354-.187.547.482-.329.468.33-.167-.548.448-.354h-.562l-.187-.548Zm-3.29 0-.177.548h-.592l.474.354-.187.547.482-.329.468.33-.166-.548.447-.354h-.562l-.187-.548Zm-2.839 1.38a.31.31 0 0 1-.035.031l.056.038-.021-.069Zm1.196.039-.18.547h-.593l.478.353-.187.548.482-.326.468.326-.166-.548.447-.353h-.562l-.187-.548Zm3.29 0-.18.547h-.593l.478.353-.187.548.482-.326.468.326-.167-.548.448-.353h-.562l-.187-.548Zm3.29 0-.18.547h-.593l.478.353-.187.548.482-.326.468.326-.17-.548.45-.353h-.561l-.187-.548Zm-1.647 1.414-.177.547h-.593l.475.354-.187.548.482-.326.468.326-.167-.548.448-.354h-.562l-.187-.547Zm-3.29 0-.177.547h-.592l.474.354-.187.548.482-.326.468.326-.166-.548.447-.354h-.562l-.187-.547Zm-3.286 0-.18.547h-.593l.478.354-.187.548.482-.326.468.326-.17-.548.45-.354h-.561l-.187-.547ZM20.75 7.623l.483-.326.468.326-.17-.544.45-.354h-.561l-.187-.547-.18.547h-.44c-.015.028-.032.052-.046.08l.37.274-.186.544Zm3.769-1.445-.18.547h-.593l.478.354-.187.544.482-.326.468.326-.166-.544.447-.354h-.562l-.187-.547Zm3.29 0-.18.547h-.593l.478.354-.187.544.482-.326.468.326-.167-.544.448-.354h-.562l-.187-.547Zm3.29 0-.18.547h-.593l.478.354-.187.544.482-.326.468.326-.17-.544.45-.354h-.561l-.187-.547Zm-1.647 1.404-.177.547h-.593l.475.354-.187.548.482-.326.468.326-.167-.548.448-.354h-.562l-.187-.547Zm-3.29 0-.177.547h-.592l.474.354-.187.548.482-.326.468.326-.166-.548.447-.354h-.562l-.187-.547Zm-3.286 0-.18.547h-.593l.478.354-.187.548.482-.326.468.326-.17-.548.45-.354h-.561l-.187-.547Zm-2.992.901.45-.354h-.391c-.087.215-.17.434-.243.656l.354.246-.17-.548Zm1.348.513-.18.551h-.593l.479.35-.187.548.481-.326.468.326-.17-.548.451-.35h-.561l-.188-.551Zm3.287 0-.18.551h-.593l.478.35-.187.548.482-.326.468.326-.166-.548.447-.35h-.562l-.187-.551Zm3.29 0-.18.551h-.593l.478.35-.187.548.482-.326.468.326-.167-.548.448-.35h-.562l-.187-.551Zm3.29 0-.18.551h-.593l.478.35-.187.548.482-.326.468.326-.17-.548.45-.35h-.561l-.187-.551Zm-1.459 1.955-.188-.551-.177.551h-.593l.475.35-.187.548.482-.326.468.326-.167-.548.448-.35h-.562Zm-3.29 0-.188-.551-.177.551h-.592l.474.35-.187.548.482-.326.468.326-.166-.548.447-.35h-.562Zm-3.287 0-.187-.551-.18.551h-.593l.478.35-.187.548.482-.326.468.326-.17-.548.45-.35h-.561Zm-3.963.899.482-.327.468.326-.166-.548.45-.353h-.564l-.188-.548-.18.548h-.242a4.64 4.64 0 0 0-.035.232l.163.121-.187.548Zm2.32.512-.188-.548-.18.548h-.593l.479.354-.187.544.481-.326.468.326-.17-.544.451-.354h-.561Zm3.286 0-.187-.548-.18.548h-.593l.478.354-.187.544.482-.326.468.326-.166-.544.447-.354h-.562Zm3.29 0-.187-.548-.18.548h-.593l.478.354-.187.544.482-.326.468.326-.167-.544.448-.354h-.562Zm3.29 0-.187-.548-.18.548h-.593l.478.354-.187.544.482-.326.468.326-.17-.544.45-.354h-.561Z" fill="#fff"/></svg>