<svg width="26" height="26" fill="none" xmlns="http://www.w3.org/2000/svg"><path d="M13 0a13 13 0 1 1 0 26 13 13 0 0 1 0-26Z" fill="#2257C1"/><path d="M7.753 14.948c0-.304-.107-.537-.322-.698-.215-.165-.601-.337-1.16-.516-.559-.182-1-.361-1.327-.537-.888-.48-1.332-1.126-1.332-1.939 0-.422.118-.798.355-1.128.24-.333.582-.592 1.026-.778.447-.187.949-.28 1.504-.28.558 0 1.056.102 1.493.306.437.2.775.486 1.015.854.243.37.365.788.365 1.257H7.76c0-.358-.113-.635-.339-.832-.225-.2-.542-.301-.95-.301-.394 0-.7.084-.919.252a.78.78 0 0 0-.327.656c0 .254.127.467.381.639.258.172.636.333 1.133.483.917.276 1.585.618 2.004 1.026.419.408.628.917.628 1.525 0 .677-.256 1.209-.768 1.596-.512.383-1.201.574-2.068.574-.601 0-1.15-.109-1.643-.327-.495-.222-.872-.525-1.134-.908a2.33 2.33 0 0 1-.386-1.332h1.616c0 .863.516 1.295 1.547 1.295.383 0 .682-.078.897-.232a.767.767 0 0 0 .322-.655Zm2.396-.053c0-.362.1-.697.3-1.005.205-.308.577-.65 1.118-1.026a5.54 5.54 0 0 1-.548-.875 1.963 1.963 0 0 1-.199-.86c0-.608.192-1.102.575-1.482.387-.383.906-.575 1.558-.575.583 0 1.061.174 1.434.521.376.348.564.78.564 1.3 0 .623-.315 1.173-.946 1.649l-.601.435 1.348 1.568a2.99 2.99 0 0 0 .317-1.375h1.321c0 1.017-.234 1.84-.704 2.471L16.858 17h-1.761l-.403-.462c-.577.38-1.24.57-1.987.57-.774 0-1.393-.203-1.859-.608-.465-.408-.698-.943-.698-1.605Zm2.632.966c.372 0 .725-.104 1.058-.311l-1.542-1.783-.112.08c-.32.272-.479.593-.479.962 0 .311.099.565.296.762.2.194.46.29.779.29Zm-.57-4.753c0 .268.158.607.473 1.015l.414-.274c.21-.136.356-.268.435-.397a.84.84 0 0 0 .123-.462.64.64 0 0 0-.199-.467.69.69 0 0 0-.51-.2.706.706 0 0 0-.537.216c-.132.143-.199.333-.199.569Zm7.085 3.137V17h-1.611V9.18h3.05c.588 0 1.103.107 1.547.322.448.215.792.52 1.032.918.24.394.36.844.36 1.349 0 .766-.264 1.371-.79 1.815-.523.44-1.248.66-2.175.66h-1.413Zm0-1.305h1.44c.425 0 .75-.1.971-.301.226-.2.339-.487.339-.86 0-.383-.113-.693-.338-.929-.226-.236-.538-.358-.935-.365h-1.477v2.455Z" fill="#fff"/></svg>